# xmcd
#
# Track frame offsets: 
#        150
#        82797
#        116440
#        182106
#
# Disc length: 2715 seconds
#
# Revision: 2
# Processed by: cddbd v1.5.2PL0 Copyright (c) Steve Scherf et al.
# Submitted via: ExactAudioCopy v0.99pb3
#
DISCID=240a9904
DTITLE=Tangerine Dream - In Search Of Hades 16 of 18
DYEAR=2019
DGENRE=Electronic
TTITLE0=Force Majeure
TTITLE1=Cloudburst Flight
TTITLE2=Thru Metamorphic Rocks
TTITLE3=Chimes And Chains
EXTD=
EXTT0=
EXTT1=
EXTT2=
EXTT3=
PLAYORDER=
